<?xml version="1.0" encoding="UTF-8"?>
<svg id="Camada_2" data-name="Camada 2" xmlns="http://www.w3.org/2000/svg" viewBox="0 0 370.97 397.92">
  <defs>
    <style>
      .cls-1 {
        fill: #f25100;
        stroke-width: 0px;
      }
    </style>
  </defs>
  <g id="Camada_2-2" data-name="Camada 2">
    <g id="Z0YdtK">
      <path class="cls-1" d="M363.74,222.96c-18.5,59.27-58.72,95.58-119.57,108.46-8.86,1.87-18.1,2.06-27.2,2.67-4.91.33-6.88-1.87-6.88-6.79-.02-48.07,0-96.13-.05-144.2,0-2.87.67-5.32,3.45-6.42,2.77-1.11,5.21-.29,7.45,1.86,11.78,11.3,23.64,22.51,35.49,33.72,12.19,11.53,30.54,6.62,34.15-9.21,1.74-7.62-.49-14.19-6.31-19.48-24.6-22.43-49.19-44.87-73.79-67.3-4.05-3.7-8.06-7.44-12.14-11.1-8.52-7.63-18.64-7.73-27.11-.02-28.57,26-57.13,52.04-85.61,78.15-9.04,8.28-9.61,20.84-1.61,29.28,7.66,8.1,20.48,8.03,29.18-.14,11.99-11.25,24.03-22.47,35.96-33.79,2.32-2.2,4.77-3.25,7.76-2.07,3.04,1.21,3.49,4,3.5,6.85.03,10.84.02,21.68.02,32.52,0,33.05.03,66.1,0,99.14-.03,39.29-23.2,70.07-60.3,80.2-43.57,11.9-90.43-17.58-98.34-62.02-1.04-5.87-1.54-11.9-1.58-17.88-.16-26.91-.07-53.81-.07-80.72h.12c0-29-.68-58.01.13-86.99C2.33,78.77,53.91,17.66,121.41,3.99c11.54-2.34,23.5-3.3,35.29-3.66,19.19-.59,38.4-.21,57.6-.15,42.56.14,79.44,14.7,109.84,44.51,23.59,23.13,38.86,51.13,43.45,83.99,4.4,31.54,5.77,63.47-3.85,94.28Z"/>
    </g>
  </g>
</svg>