<?xml version="1.0" encoding="UTF-8"?>
<svg id="Camada_2" data-name="Camada 2" xmlns="http://www.w3.org/2000/svg" viewBox="0 0 988.77 244.86">
  <defs>
    <style>
      .cls-1 {
        fill: #f25100;
      }

      .cls-1, .cls-2 {
        stroke-width: 0px;
      }

      .cls-2 {
        fill: #fff;
      }
    </style>
  </defs>
  <g id="Camada_1-2" data-name="Camada 1">
    <path class="cls-1" d="M221.84,140.4c-13.28,36.77-39.12,58.51-77.94,64.43-2.96.45-5.97.48-8.94.86-4.85.62-6.55-1.56-6.51-6.26.14-16.33.05-32.66.05-49,0-11.33-.13-22.66.11-33.99.05-2.39,1.46-4.75,2.24-7.13,2.09,1.08,4.52,1.79,6.21,3.32,6.55,5.91,12.85,12.11,19.29,18.15,6.06,5.69,13.55,5.85,18.63.47,5.21-5.52,4.49-13.1-1.81-18.87-16.6-15.17-33.18-30.36-49.82-45.48-8.18-7.44-12.91-7.31-21.15.22-16.72,15.28-33.49,30.52-50.17,45.84-4.87,4.47-5.94,9.56-3.5,14.83,2.39,5.17,7.34,8.33,12.97,7.08,3.2-.7,6.4-2.72,8.93-4.92,6.77-5.91,13.1-12.33,19.8-18.31,1.4-1.25,3.84-2.28,5.48-1.93,1.01.21,2.01,3.23,2.02,4.99.13,27,.34,54,.01,80.99-.32,25.91-19.21,46.4-44.38,48.93-24.74,2.48-47.37-14.34-52.61-39.23-.61-2.9-.7-5.95-.71-8.93-.07-17.66-.03-35.33-.03-52.99C.01,127.31,0,111.14.01,94.98.04,47.47,34.98,7.15,82.17,2.16c23.77-2.51,48.05-3.76,71.63,1.58,42.77,9.67,72.14,47.19,72.63,91.2.18,15.32.74,30.74-4.59,45.46Z"/>
    <path class="cls-2" d="M570.89,165.86c4.99-.3,9.98-.39,14.98-.46,27.48-.36,45.69-14.04,51.76-39.49,3.76-15.8,3.63-31.76-.71-47.46-5.32-19.24-17.87-31.45-37.5-35.16-8.39-1.59-17.27-1.77-25.83-1.18-23.13,1.57-39.12,15.18-45.09,37.41-3.29,12.24-3.76,24.76-1.98,37.16,3.7,25.76,16.36,37.59,42.26,40.53,2.99.34,5.99.67,8.98,1,.01.49.03.98.04,1.47-1.44.24-2.88.51-4.33.71-6.74.92-13.64,1.23-20.18,2.9-6.73,1.71-9.27,6.31-9.25,13.62.01,7.19,2.78,11.66,9.34,13.66,4.09,1.25,8.46,2.16,12.72,2.21,22.33.27,44.66.21,66.98.24.79.01,1.57-.22,2.55-.37v-20.83c-7.73.56-15.02,1.08-22.31,1.6-13.95.99-27.9,2.03-41.86,2.92-3.33.21-6.43-.29-6.6-4.82-.17-4.34,2.62-5.45,6.03-5.66ZM547.78,119.56c-2.77-12.41-2.62-24.81,1.29-36.97,3.95-12.29,12.25-20.2,25.12-22.19,19.99-3.1,36.06,2.78,42.2,21.78,2.42,7.47,2.89,15.57,4.24,23.39-.24.06-.49.13-.73.2-.57,4.28-.89,8.61-1.75,12.83-4.08,20.02-18.14,30.43-38.54,28.69-17.79-1.51-27.95-10.28-31.83-27.73Z"/>
    <path class="cls-2" d="M350.48,72.5c-1.93-19.14-10.08-27.68-29.4-29.66-13.02-1.34-26.25-.74-39.39-.94-5.78-.08-11.56-.01-17.49-.01v123.2h20.05v-47.71c2.4,0,4.35.03,6.31,0,9.81-.16,19.66.11,29.43-.59,16.55-1.18,26.68-9.14,29.46-23.49,1.32-6.76,1.72-13.96,1.03-20.8ZM308.41,99.38c-7.94.03-15.89.01-23.93.01v-38.77c11.03,0,21.84-.64,32.53.2,8.38.66,12.34,6,13.07,14.47.03.33.06.66.08.99.97,17.36-4.38,23.06-21.75,23.1Z"/>
    <path class="cls-2" d="M522.39,75.72c-1.54,5.96-2.92,11.36-4.33,16.76-6.98,26.72-13.87,53.46-20.98,80.14-4.49,16.82-14.45,24.85-31.66,26.15-8.94.67-17.87,1.43-27.26,2.19v-19.9c10.22,0,20.17-.22,30.09.09,4.6.15,7.23-1.03,7.95-5.88.46-3.06,1.66-6.02,2.77-9.89-6.42,0-12.33-.11-18.24.06-2.59.07-3.92-.66-4.54-3.3-6.64-28-13.38-55.98-20.06-83.98-.15-.61-.02-1.28-.02-2.43,5.91,0,11.73-.25,17.5.2,1.28.1,3.03,2.56,3.43,4.21,6.1,25.4,12.01,50.84,17.97,76.27.11.49.07,1.06.31,1.46.94,1.57,1.98,3.09,2.97,4.63.89-1.47,2.2-2.83,2.61-4.42,6.51-25.47,13.01-50.94,19.24-76.47,1.08-4.44,2.66-6.56,7.6-6,4.58.52,9.27.11,14.65.11Z"/>
    <path class="cls-2" d="M988.77,165.33c-7.97,0-15.2.12-22.41-.17-.79-.03-1.95-2.36-2.14-3.73-1.2-9.07-2.33-18.16-3.18-27.26-.43-4.66-2.2-6.77-7.2-6.54-7.77.35-15.57.09-23.95.09v37.39h-20.61V42.26h20.5v66.32c8.34,1.98,10.49,1.2,15.07-5.32,5.74-8.17,11.31-16.46,17.26-24.48,1.15-1.54,3.63-2.8,5.57-2.92,5.91-.38,11.86-.14,19.01-.14-8.34,11.47-15.56,22.42-23.95,32.38-2.95,3.5-8.8,4.55-13.62,6.87.79.22,1.68.62,2.61.72,3.96.43,7.98.46,11.88,1.21,7.21,1.38,12.71,5.55,14.94,12.55,3.68,11.52,6.67,23.26,10.22,35.88Z"/>
    <path class="cls-2" d="M435.03,148.76c-6.59,1.08-7.14.65-7.15-6.13-.03-14.66.03-29.33-.02-43.99-.05-13.34-9.17-22.62-22.5-22.89-6-.13-12-.03-18-.03h-28v18.93c14.11-.88,27.89-1.78,41.67-2.53,2.24-.12,5.71-1.34,5.96,2.49.38,5.9.1,11.83.1,18.12-7.14,0-13.67-.53-20.07.13-7.2.75-14.67,1.59-21.34,4.16-10.36,3.99-13.36,13.25-13.1,23.65.26,10.39,4.56,18.32,14.64,22.25,8.18,3.18,16.62,3.17,25.07,1.35,6.86-1.48,11.5-5.66,14.11-12.18.62-1.56,1.53-3.02,2.31-4.52.44-.32.89-.64,1.33-.96,3.31,20.3,17.55,19.44,32.18,18.48v-17.48c-2.67.43-4.93.78-7.19,1.15ZM382.41,147.76c-5.67-1.2-9.04-5.08-9.32-10.78-.29-6.02,2.6-11.02,8.42-11.85,8.3-1.17,16.77-1.18,25.08-1.67,2.5,17.25-8.3,27.63-24.18,24.3Z"/>
    <path class="cls-2" d="M745.97,146.76v18.34c-7.33.33-14.55,1.18-21.56-1.63-7.45-2.99-11.02-9.06-11.96-17.17-.49.12-.98.23-1.47.35-.66,1-1.55,1.91-1.93,3-3,8.56-9.22,13.63-17.92,14.71-6.85.84-14.05,1.11-20.82,0-12.57-2.07-20.33-10.8-20.9-25.02-.85-20.93-.22-41.92-.22-63.25h21.74c-.35,6.45-.68,12.85-1.08,19.25-.63,10.14-1.32,20.27-1.99,30.4-.98,14.59,5.19,21.17,19.7,20.98,14.59-.19,23.32-8.82,23.45-23.45.13-13.83.03-27.66.03-41.49v-5.72h20.83v5.35c0,20.32,0,40.65.01,60.98,0,6.43.05,6.46,6.56,5.52,2.41-.35,4.82-.73,7.53-1.14Z"/>
    <path class="cls-2" d="M899.79,128.42c3.11,16.66-8.76,33.42-26.38,36.09-6.96,1.06-14.4,1.01-21.33-.19-19.36-3.37-31.39-16.85-32.8-36.68-.53-7.54-.25-15.45,1.47-22.77,4.99-21.25,21.49-31.16,46.7-29.09,19.46,1.61,32.15,14.81,32.87,34.22.02.46-.15.94-.27,1.64h-19.2c-.26-.49-.51-.76-.55-1.05-1.42-11.99-6.73-17.45-17.41-17.86-13-.49-20.96,4.9-22.65,16.71-1,6.97-1.12,14.35.02,21.27,2.36,14.46,19.72,22.29,32.85,15.49,4.68-2.43,6.12-6.78,6.83-11.52.29-1.95.31-3.94.48-6.26h19.37Z"/>
    <path class="cls-2" d="M819.52,147.66v17.25h-65.09v-16.87h19.39c.3-.96.65-1.55.65-2.15.04-16.83.02-33.67.08-50.5.02-3.94-1.86-4.85-5.42-4.14-4.72.95-9.5,1.62-14.83,2.51-.11-1.61-.24-2.75-.25-3.9-.03-4.48-.01-8.95-.01-14.71,9.08.69,17.92.54,26.4,2.23,8.76,1.74,13.56,9.65,13.7,20.27.19,14.66.06,29.33.06,44v6.01h25.32Z"/>
    <path class="cls-2" d="M792.04,54.27c.11,7.02-5.26,12.51-12.17,12.44-6.65-.05-11.98-5.46-11.99-12.17-.01-6.78,5.17-12.03,11.97-12.12,6.8-.1,12.08,5.04,12.19,11.85Z"/>
  </g>
</svg>