<?xml version="1.0" encoding="UTF-8"?>
<svg id="Camada_2" data-name="Camada 2" xmlns="http://www.w3.org/2000/svg" viewBox="0 0 732.58 697.76">
  <defs>
    <style>
      .cls-1 {
        fill: #fff;
        stroke-width: 0px;
      }
    </style>
  </defs>
  <g id="Camada_1-2" data-name="Camada 1">
    <g id="s1u24T">
      <path class="cls-1" d="M732.31,367.43c0-66.33-.32-132.66.27-198.98.12-13.24-3.68-22.09-14.25-30.47-55.34-43.88-110.07-88.53-164.96-132.97-4.23-3.42-8.8-5.01-14.22-5.01-115.99.04-231.98.03-347.97.04-12.16,0-18.83,6.72-18.83,18.87,0,60.49.06,120.99-.06,181.48-.01,7.43,1.92,13.53,8.61,17.3,6.7,3.76,12.93,2.29,19.2-1.72,61.54-39.4,123.17-78.67,184.75-118,10.25-6.55,16-6.7,24.15-.47,58.33,44.63,116.61,89.34,175.1,133.76,7.26,5.51,10.2,11.93,10.19,20.83-.14,94.66-.08,189.32-.09,283.98,0,1.83.05,3.67-.15,5.49-1.06,9.75-7.52,15.59-17.32,15.64-9.33.05-18.67.01-28,.01-13.09-.01-19.23-6.16-19.23-19.22,0-83.83-.07-167.66.11-251.49.02-8.26-2.68-14.09-9.31-19.12-38.37-29.05-76.52-58.41-114.76-87.64-11.54-8.81-15.7-8.96-27.8-1.24-88.39,56.42-176.78,112.84-265.18,169.26-34.51,22.03-69.05,44.03-103.54,66.1-11.58,7.42-12.05,20.6-1.16,29.01,3.42,2.65,6.92,5.21,10.37,7.82,106.95,80.84,213.87,161.72,320.96,242.38,3.57,2.68,8.8,4.46,13.27,4.47,83.66.27,167.32.19,250.98.22,5.61,0,10.29-1.76,14.43-5.65,35.89-33.81,71.82-67.57,107.82-101.27,4.54-4.26,6.7-9.1,6.69-15.42-.11-69.33-.07-138.66-.07-207.99ZM445.49,448.23c-32.43,17.87-57.97,42.24-73.65,76.26-2.76,5.98-8.37,6.14-12.58.55-20.58-27.31-46.18-48.8-75.97-65.33-9.29-5.15-19.04-9.49-28.66-14.02-3.21-1.52-5.98-3.17-5.87-7.16.11-3.95,2.72-5.68,6.17-6.87,25.32-8.74,49.24-20.19,70.38-36.91,13.15-10.4,24.57-22.45,34.7-35.79,1.58-2.07,4.02-3.47,7.06-6.03,2.63,3.01,5.17,4.92,6.37,7.47,10.16,21.6,24.04,40.4,42.81,55.14,9.11,7.15,19.48,12.68,29.08,19.24,2.24,1.53,5.15,4.29,5.08,6.4-.08,2.45-2.57,5.76-4.92,7.05Z"/>
    </g>
  </g>
</svg>